#!OML:ASF F:\VICON\USERDATA\INSTALL\rory3\rory3.ASF
:FULLY-SPECIFIED
:DEGREES
552
root 0.380778 15.5471 -3.58986 -21.5172 -43.5756 4.00211
lowerback 19.1029 2.64597 -3.54608
upperback 10.8458 2.57108 1.90956
thorax 0.765708 0.924423 3.56247
lowerneck -21.3067 7.60196 -5.02068
upperneck 16.5344 11.3186 2.87441
head 8.14159 5.33598 3.1885
rclavicle 6.90777e-014 -2.54444e-014
rhumerus -26.5835 13.1188 -83.4816
rradius 82.182
rwrist 24.3788
rhand -31.8474 25.0639
rfingers 7.12502
rthumb -5.1014 -4.85466
lclavicle 6.90777e-014 -2.54444e-014
lhumerus -27.7634 -14.0797 92.5073
lradius 78.2826
lwrist -17.5729
lhand -33.1984 12.4588
lfingers 7.12502
lthumb -6.40579 42.3419
rfemur -69.1189 -30.0942 26.0783
rtibia 142.064
rfoot -9.76096 0.538682
rtoes 3.98193
lfemur -75.4854 51.8032 -28.8602
ltibia 143.871
lfoot -7.17651 -5.10928
ltoes 0.817733
553
root 0.384101 15.5457 -3.58949 -21.687 -43.7586 4.13361
lowerback 19.2365 2.6809 -3.65404
upperback 10.8707 2.58978 1.87499
thorax 0.721626 0.928531 3.58031
lowerneck -21.4256 7.66764 -4.97559
upperneck 16.6434 11.3985 2.89831
head 8.1957 5.37477 3.20935
rclavicle 3.05134e-014 -2.62396e-014
rhumerus -26.5618 13.271 -83.4943
rradius 82.2056
rwrist 24.2423
rhand -31.8312 25.1057
rfingers 7.12502
rthumb -5.08573 -4.81322
lclavicle 3.05134e-014 -2.62396e-014
lhumerus -27.7948 -13.9616 92.4819
lradius 78.3089
lwrist -17.6694
lhand -33.2049 12.2768
lfingers 7.12502
lthumb -6.41199 42.1597
rfemur -69.0929 -30.0996 25.974
rtibia 142.092
rfoot -9.64204 0.638156
rtoes 4.18425
lfemur -75.2792 52.1145 -28.7426
ltibia 143.883
lfoot -7.24049 -5.20814
ltoes 0.657996
554
root 0.385589 15.5417 -3.589 -21.877 -43.8854 4.35586
lowerback 19.2208 2.73377 -3.77386
upperback 10.9665 2.63414 1.78415
thorax 0.830064 0.942157 3.54541
lowerneck -21.6676 7.67526 -4.89809
upperneck 16.7514 11.3929 2.93223
head 8.2757 5.37541 3.22539
rclavicle 2.59414e-014 -2.3059e-014
rhumerus -26.388 13.29 -83.539
rradius 82.1563
rwrist 24.2317
rhand -31.9528 24.9911
rfingers 7.12502
rthumb -5.20312 -4.92506
lclavicle 2.59414e-014 -2.3059e-014
lhumerus -27.6862 -13.977 92.3864
lradius 78.3506
lwrist -17.7651
lhand -33.0822 12.0678
lfingers 7.12502
lthumb -6.29358 41.9543
rfemur -69.1006 -30.1709 25.7402
rtibia 142.171
rfoot -9.55755 0.87578
rtoes 5.10146
lfemur -75.2144 52.2664 -28.8156
ltibia 143.886
lfoot -7.27159 -5.21734
ltoes 0.520898
555
root 0.385161 15.5396 -3.58807 -21.8947 -43.8628 4.47906
lowerback 19.0152 2.73489 -3.79614
upperback 11.1113 2.63559 1.68844
thorax 1.09517 0.935239 3.46443
lowerneck -21.9637 7.64841 -4.86204
upperneck 16.7734 11.3519 2.9706
head 8.33465 5.35988 3.24381
rclavicle 3.34952e-014 -2.3059e-014
rhumerus -26.0818 13.1826 -83.5639
rradius 82.0787
rwrist 24.3076
rhand -32.1135 24.8332
rfingers 7.12502
rthumb -5.35831 -5.07903
lclavicle 3.34952e-014 -2.3059e-014
lhumerus -27.4132 -14.2028 92.2607
lradius 78.3426
lwrist -17.7404
lhand -33.1181 12.2269
lfingers 7.12502
lthumb -6.3282 42.1124
rfemur -69.1563 -30.3503 25.5866
rtibia 142.226
rfoot -9.56633 1.31146
rtoes 5.88881
lfemur -75.3682 51.9727 -29.0401
ltibia 143.87
lfoot -7.15829 -5.13835
ltoes 0.360948
556
root 0.384428 15.54 -3.58801 -21.9195 -43.8079 4.76033
lowerback 18.8025 2.73623 -4.03331
upperback 11.1502 2.60938 1.60007
thorax 1.24407 0.910097 3.51611
lowerneck -22.1407 7.67202 -4.82493
upperneck 16.7936 11.3791 2.9816
head 8.37151 5.37441 3.25488
rclavicle -5.9039e-014 -7.15625e-015
rhumerus -25.9592 13.2307 -83.5661
rradius 82.0897
rwrist 24.3435
rhand -32.2586 24.7323
rfingers 7.12502
rthumb -5.49845 -5.17633
lclavicle -5.9039e-014 -7.15625e-015
lhumerus -27.2635 -14.3217 92.1593
lradius 78.3444
lwrist -17.7521
lhand -33.0866 12.46
lfingers 7.12502
lthumb -6.29782 42.3464
rfemur -69.423 -30.5282 25.4295
rtibia 142.279
rfoot -9.55161 1.80329
rtoes 6.21894
lfemur -75.6435 51.4636 -29.5465
ltibia 143.806
lfoot -7.00858 -4.95585
ltoes 0.209117
557
root 0.381774 15.5436 -3.5872 -22.0495 -43.841 5.16434
lowerback 18.6444 2.78555 -4.40645
upperback 11.1226 2.62544 1.52261
thorax 1.28495 0.903406 3.64578
lowerneck -22.1829 7.69431 -4.84271
upperneck 16.8495 11.4037 3.05117
head 8.39063 5.39094 3.28775
rclavicle 1.70955e-014 -1.03368e-014
rhumerus -25.9847 13.3051 -83.5736
rradius 82.1229
rwrist 24.3775
rhand -32.3305 24.678
rfingers 7.12502
rthumb -5.56786 -5.22887
lclavicle 1.70955e-014 -1.03368e-014
lhumerus -27.3079 -14.3677 92.0874
lradius 78.4074
lwrist -17.7918
lhand -32.9534 12.5824
lfingers 7.12502
lthumb -6.16926 42.4726
rfemur -69.7007 -30.5726 25.1964
rtibia 142.334
rfoot -9.46701 2.07198
rtoes 6.28252
lfemur -75.7544 51.2015 -30.0122
ltibia 143.728
lfoot -6.99184 -4.84692
ltoes -0.160298
558
root 0.380999 15.5494 -3.583 -22.2246 -44.0257 5.33941
lowerback 18.6883 2.84083 -4.48599
upperback 11.1185 2.68113 1.46965
thorax 1.25276 0.929448 3.62302
lowerneck -22.0956 7.67248 -4.93477
upperneck 16.8182 11.3697 3.18328
head 8.35223 5.3863 3.33467
rclavicle -3.16068e-014 1.74931e-014
rhumerus -26.0923 13.3501 -83.5931
rradius 82.1698
rwrist 24.4113
rhand -32.2711 24.6998
rfingers 7.12502
rthumb -5.5105 -5.20852
lclavicle -3.16068e-014 1.74931e-014
lhumerus -27.4102 -14.4168 92.026
lradius 78.4739
lwrist -17.8093
lhand -33.0668 12.6183
lfingers 7.12502
lthumb -6.27872 42.5052
rfemur -69.5628 -30.4665 25.0209
rtibia 142.316
rfoot -9.50154 2.18567
rtoes 6.11752
lfemur -75.47 51.4561 -29.8958
ltibia 143.685
lfoot -7.07911 -4.94527
ltoes -0.224086
559
root 0.381885 15.5517 -3.57926 -22.2818 -44.139 5.3378
lowerback 18.7784 2.84568 -4.48242
upperback 11.1006 2.68212 1.47291
thorax 1.18746 0.931284 3.62132
lowerneck -21.9032 7.66075 -4.97661
upperneck 16.6915 11.3582 3.16338
head 8.27615 5.38151 3.31748
rclavicle 1.98785e-015 4.77083e-015
rhumerus -26.2015 13.4412 -83.5783
rradius 82.2157
rwrist 24.3902
rhand -32.2977 24.8013
rfingers 7.12502
rthumb -5.53617 -5.10635
lclavicle 1.98785e-015 4.77083e-015
lhumerus -27.4546 -14.3908 92.0332
lradius 78.4645
lwrist -17.9161
lhand -33.1992 12.6758
lfingers 7.12502
lthumb -6.40652 42.5589
rfemur -69.421 -30.4607 24.9485
rtibia 142.309
rfoot -9.56428 2.28774
rtoes 6.14866
lfemur -75.2568 51.5804 -29.692
ltibia 143.677
lfoot -7.11314 -5.06044
ltoes -0.0804042
560
root 0.381438 15.5486 -3.57629 -22.191 -44.168 5.42764
lowerback 18.6764 2.85903 -4.6234
upperback 11.0193 2.68712 1.49733
thorax 1.14472 0.93103 3.72748
lowerneck -21.8308 7.65429 -4.98187
upperneck 16.753 11.3611 3.10701
head 8.2883 5.37428 3.29934
rclavicle -3.68746e-014 1.35174e-014
rhumerus -26.3074 13.4981 -83.5179
rradius 82.2524
rwrist 24.4203
rhand -32.3111 24.7758
rfingers 7.12502
rthumb -5.54906 -5.13151
lclavicle -3.68746e-014 1.35174e-014
lhumerus -27.5144 -14.348 92.168
lradius 78.465
lwrist -18.0383
lhand -33.1702 12.7577
lfingers 7.12502
lthumb -6.37855 42.6417
rfemur -69.7136 -30.4857 24.9358
rtibia 142.393
rfoot -9.51929 2.35803
rtoes 6.50915
lfemur -75.5857 51.3165 -30.0058
ltibia 143.707
lfoot -7.03678 -5.0203
ltoes -0.497887
561
root 0.381065 15.5526 -3.57742 -22.4297 -44.1812 5.62352
lowerback 18.8613 2.91152 -4.85542
upperback 10.999 2.70859 1.51492
thorax 1.01926 0.933037 3.86798
lowerneck -21.765 7.66284 -4.99213
upperneck 16.832 11.3921 3.02633
head 8.30755 5.3765 3.27833
rclavicle -4.12478e-014 7.15625e-015
rhumerus -26.4037 13.5446 -83.4552
rradius 82.2695
rwrist 24.5104
rhand -32.3371 24.782
rfingers 7.12502
rthumb -5.57422 -5.12464
lclavicle -4.12478e-014 7.15625e-015
lhumerus -27.6201 -14.2451 92.2905
lradius 78.5361
lwrist -18.1883
lhand -32.8457 12.4166
lfingers 7.12502
lthumb -6.06527 42.3098
rfemur -69.5363 -30.6001 24.676
rtibia 142.374
rfoot -9.50233 2.30917
rtoes 6.41114
lfemur -75.2825 51.1673 -29.9885
ltibia 143.641
lfoot -7.07572 -4.97369
ltoes -0.899449
562
root 0.380402 15.5515 -3.57609 -22.5032 -44.1919 5.74251
lowerback 18.8863 2.922 -4.98787
upperback 10.994 2.6997 1.51086
thorax 0.998538 0.922895 3.93952
lowerneck -21.7805 7.65889 -5.06152
upperneck 16.8959 11.4054 3.0524
head 8.32544 5.37907 3.30224
rclavicle 9.34288e-015 3.97569e-015
rhumerus -26.4092 13.5886 -83.3867
rradius 82.2828
rwrist 24.5585
rhand -32.2713 24.783
rfingers 7.12502
rthumb -5.51064 -5.12536
lclavicle 9.34288e-015 3.97569e-015
lhumerus -27.684 -14.1573 92.3225
lradius 78.6239
lwrist -18.3131
lhand -32.4611 12.0051
lfingers 7.12502
lthumb -5.6939 41.9086
rfemur -69.6022 -30.705 24.6899
rtibia 142.345
rfoot -9.468 1.86979
rtoes 5.18273
lfemur -75.3446 50.9779 -30.1357
ltibia 143.636
lfoot -7.04618 -4.90406
ltoes -1.13629
